<svg width="32" height="32" viewBox="0 0 32 32" fill="none" xmlns="http://www.w3.org/2000/svg">
  <!-- Dark background pill -->
  <rect width="32" height="32" rx="8" fill="#2D2C28"/>

  <!-- Left half of heart — terracotta -->
  <path d="M16 9.2C14.4 7.6 12.3 6.5 9.9 6.5C5.8 6.5 2.5 9.6 2.5 13.7C2.5 18.2 6.1 22.2 16 27.8L16 9.2Z" fill="#D26D53"/>

  <!-- Right half of heart — warm cream -->
  <path d="M16 9.2C17.6 7.6 19.7 6.5 22.1 6.5C26.2 6.5 29.5 9.6 29.5 13.7C29.5 18.2 25.9 22.2 16 27.8L16 9.2Z" fill="#EEE8DA"/>

  <!-- Full heart outline — sage -->
  <path d="M16 9.2C14.4 7.6 12.3 6.5 9.9 6.5C5.8 6.5 2.5 9.6 2.5 13.7C2.5 18.2 6.1 22.2 16 27.8C25.9 22.2 29.5 18.2 29.5 13.7C29.5 9.6 26.2 6.5 22.1 6.5C19.7 6.5 17.6 7.6 16 9.2Z" stroke="#556045" stroke-width="0.9" stroke-linejoin="round"/>

  <!-- Center divider — sage -->
  <line x1="16" y1="9.2" x2="16" y2="27.8" stroke="#556045" stroke-width="0.9" stroke-linecap="round"/>

  <!-- Paw print — white -->
  <ellipse cx="9.8" cy="20.5" rx="2.3" ry="1.85" fill="white"/>
  <circle cx="7.6" cy="17.4" r="1.08" fill="white"/>
  <circle cx="9.8" cy="16.4" r="1.08" fill="white"/>
  <circle cx="12.0" cy="17.4" r="1.08" fill="white"/>

  <!-- Medical cross — sage -->
  <rect x="21.4" y="14.2" width="2.0" height="7.5" rx="1" fill="#556045"/>
  <rect x="18.7" y="16.9" width="7.5" height="2.0" rx="1" fill="#556045"/>
</svg>
